<?xml version='1.0' encoding='utf-8'?>
<svg xmlns="http://www.w3.org/2000/svg" id="svg18" width="12mm" height="12mm" version="1.2" viewBox="0 0 34.016 34.016">
 <title>Operation - Lookout</title><desc>Adapted from Poster 2025 – National Incident Feature Service (NIFS) Symbology. This is an unofficial adaptation for use in QGIS</desc><rect id="rect418" x="8.5039" y="8.5039" width="17.008" height="17.008" stroke-linecap="round" stroke-linejoin="round" stroke-width="3.4016" style="paint-order:markers fill stroke" />
 <path id="path1030" d="m12.578 9.9212v1.9145h2.6577v-1.9145zm6.2007 0v1.9145h2.6577v-1.9145zm-7.086 2.6637-1.7718 7.2575v3.273c0 0.95733 0 0.95733 0.8858 0.95733h2.6574c0.94722 0.07411 0.88542 0.0035 0.8858-0.95733l-3.75e-4 -4.7869c0.88618 2.04e-4 0.8862 0.0039 0.88618-0.95713l3e-5 -4.7865zm7.086 0 1.87e-4 4.7865c0 0.95734-0.0033 0.95734 0.88602 0.95713l-2.17e-4 4.7869c0 0.95733 0 0.95733 0.8858 0.95733h2.6574c0.8858 0 0.8858 0 0.8858-0.95733l4.04e-4 -3.273-1.7724-7.2575zm-2.6568 0.05541v5.6882h1.7715v-5.6882z" fill="#fff" stroke-linecap="round" stroke-linejoin="round" stroke-width="2.4365" style="paint-order:markers fill stroke" />
</svg>