<?xml version='1.0' encoding='utf-8'?>
<svg xmlns="http://www.w3.org/2000/svg" id="svg18" width="12mm" height="12mm" version="1.2" viewBox="0 0 34.016 34.016">
 <title>Reference - Fence Cut Damaged</title><desc>Adapted from Poster 2025 – National Incident Feature Service (NIFS) Symbology. This is an unofficial adaptation for use in QGIS</desc><path id="path423" transform="translate(0 -1.5)" d="m17.008 9.9212 8.0877 5.8761-3.0892 9.5077h-9.997l-3.0892-9.5077z" stroke-linecap="round" stroke-linejoin="round" stroke-width="1.1339" style="paint-order:markers fill stroke" />
 <path id="path423-3" transform="matrix(.90794 0 0 .90794 1.5658 .12151)" d="m17.008 9.9212 8.0877 5.8761-3.0892 9.5077h-9.997l-3.0892-9.5077z" fill="#008000" stroke-linecap="round" stroke-linejoin="round" stroke-width="1.2488" style="paint-order:markers fill stroke" />
 <path id="rect321" d="m15.874 13.503-0.56719 1.1332v5.6695h1.1332v-5.6695z" fill="#fff" stroke-width="0" style="paint-order:markers fill stroke" />
 <path id="rect321-7" d="m13.607 13.503-0.56719 1.1332v5.6695h1.1332v-5.6695z" fill="#fff" stroke-width="0" style="paint-order:markers fill stroke" />
 <path id="rect321-3" d="m20.41 13.503-0.56719 1.1332v5.6695h1.1332v-5.6695z" fill="#fff" stroke-width="0" style="paint-order:markers fill stroke" />
 <path id="rect545" d="m12.473 15.486v0.56689h5.5723l0.26514-0.56689h-5.8374zm7.0869 0-0.26367 0.56689h2.2471v-0.56689h-1.9834z" fill="#fff" stroke-width="0" style="paint-order:markers fill stroke" />
 <path id="rect545-5" d="m12.473 18.321v0.56689h4.251l0.26367-0.56689h-4.5146zm5.7656 0-0.26514 0.56689h3.5698v-0.56689h-3.3047z" fill="#fff" stroke-width="0" style="paint-order:markers fill stroke" />
</svg>