<?xml version='1.0' encoding='utf-8'?>
<svg xmlns="http://www.w3.org/2000/svg" id="svg18" width="12mm" height="12mm" version="1.2" viewBox="0 0 34.016 34.016">
 <title>Air Operation - UAS Launch And Recovery</title><desc>Adapted from Poster 2025 – National Incident Feature Service (NIFS) Symbology. This is an unofficial adaptation for use in QGIS</desc><circle id="path1386" transform="rotate(45)" cx="24.053" r="8.5039" fill="#a900e6" stroke-linecap="round" stroke-linejoin="round" stroke-width="3.75" style="paint-order:markers fill stroke" />
 <circle id="path1446" cx="17.008" cy="17.008" r="7.0866" fill="#fff" stroke-linecap="round" stroke-linejoin="round" stroke-width="3.75" style="paint-order:markers fill stroke" />
 <circle id="path1938-3" transform="rotate(45)" cx="24.053" cy="2.369e-6" r="2.5512" fill="#a900e6" style="paint-order:markers fill stroke" />
 <path id="path1386-4-6" d="m22.632 10.645a8.5039 8.5039 0 0 0-1.2274-0.88561 8.5039 8.5039 0 0 0-3.7838 5.3831 7.0866 7.0866 0 0 1-1.2927-0.01864 8.5039 8.5039 0 0 0-2.2549-4.0386 8.5039 8.5039 0 0 0-1.6241-1.2326 8.5039 8.5039 0 0 0-1.2181 0.93015 7.0866 7.0866 0 0 1 1.8406 1.3041 7.0866 7.0866 0 0 1 1.6821 2.6827 7.0866 7.0866 0 0 1-2.6848-1.6801 7.0866 7.0866 0 0 1-1.303-1.8417 8.5039 8.5039 0 0 0-0.93118 1.2171 8.5039 8.5039 0 0 0 5.2722 3.8822 7.0866 7.0866 0 0 1 0.01864 1.2906 8.5039 8.5039 0 0 0-5.3779 3.7745 8.5039 8.5039 0 0 0 0.9084 1.2316 7.0866 7.0866 0 0 1 1.2378-1.7122 7.0866 7.0866 0 0 1 2.9406-1.7536 7.0866 7.0866 0 0 1-1.7629 2.9313 7.0866 7.0866 0 0 1-1.707 1.243 8.5039 8.5039 0 0 0 1.2564 0.9229 8.5039 8.5039 0 0 0 3.7527-5.3851 7.0866 7.0866 0 0 1 1.2844 0.0145 8.5039 8.5039 0 0 0 3.9039 5.2753 8.5039 8.5039 0 0 0 1.2026-0.92704 7.0866 7.0866 0 0 1-1.851-1.3186 7.0866 7.0866 0 0 1-1.6573-2.662 7.0866 7.0866 0 0 1 2.6599 1.6594 7.0866 7.0866 0 0 1 1.3206 1.8489 8.5039 8.5039 0 0 0 0.92808-1.2036 8.5039 8.5039 0 0 0-1.2471-1.6469 8.5039 8.5039 0 0 0-4.0303-2.2529 7.0866 7.0866 0 0 1-0.01554-1.2854 8.5039 8.5039 0 0 0 0.0011-0.0011 8.5039 8.5039 0 0 0 5.3882-3.7558 8.5039 8.5039 0 0 0-0.92704-1.2523 7.0866 7.0866 0 0 1-1.243 1.707 7.0866 7.0866 0 0 1-2.9323 1.7619 7.0866 7.0866 0 0 1 1.7546-2.9396 7.0866 7.0866 0 0 1 1.7329-1.2523 8.5039 8.5039 0 0 0-0.0145-0.0145zm-5.1904 5.93a8.5039 8.5039 0 0 0-0.02072 0.34803 8.5039 8.5039 0 0 0 0.03418 0.54587 8.5039 8.5039 0 0 0-0.55001-0.03004 8.5039 8.5039 0 0 0-0.34699 0.01968 8.5039 8.5039 0 0 0 0.0062-0.36046 8.5039 8.5039 0 0 0-0.03107-0.54898 8.5039 8.5039 0 0 0 0.5469 0.03315 8.5039 8.5039 0 0 0 0.36149-0.0073z" fill="#a900e6" stroke-linecap="round" stroke-linejoin="round" stroke-width="3.75" style="paint-order:markers fill stroke" />
 <circle id="path1938" transform="rotate(45)" cx="24.053" cy="2.369e-6" r="1.4173" fill="#fff" style="paint-order:markers fill stroke" />
</svg>