<?xml version='1.0' encoding='utf-8'?>
<svg xmlns="http://www.w3.org/2000/svg" id="svg18" width="12mm" height="12mm" version="1.2" viewBox="0 0 34.016 34.016">
 <title>Rapair - Stream Crossing</title><desc>Adapted from Poster 2025 – National Incident Feature Service (NIFS) Symbology. This is an unofficial adaptation for use in QGIS</desc><path id="path423" transform="translate(0 -1.5)" d="m17.008 9.9212 8.0877 5.8761-3.0892 9.5077h-9.997l-3.0892-9.5077z" stroke-linecap="round" stroke-linejoin="round" stroke-width="1.1339" style="paint-order:markers fill stroke" />
 <path id="path423-3" transform="matrix(.90794 0 0 .90794 1.5658 .12151)" d="m17.008 9.9212 8.0877 5.8761-3.0892 9.5077h-9.997l-3.0892-9.5077z" fill="#008000" stroke-linecap="round" stroke-linejoin="round" stroke-width="1.2488" style="paint-order:markers fill stroke" />
 <path id="rect2584" d="m14.861 13.009c-0.16947 6.98e-4 -0.35092 0.025169-0.54492 0.073242-1.1813 0.13397-1.2132 1.3114-2.978 1.2378v1.188h0.99609c1.3217-0.30077 1.3184-1.013 2.2266-1.2129 0.93721 0 0.81228 0.44744 1.7388 1.2129v-1.6392c-0.37501-0.56564-0.83323-0.86236-1.4385-0.85986z" fill="#fff" stroke-linecap="round" stroke-linejoin="round" stroke-width="1.1339" style="paint-order:markers fill stroke" />
 <path id="rect2584-9" d="m19.154 13.009c-0.60525-0.002494-1.0635 0.29422-1.4385 0.85986v1.6392c0.92649-0.76545 0.80302-1.2129 1.7402-1.2129 0.90812 0.19986 0.90336 0.91212 2.2251 1.2129h0.99609v-1.188c-1.7648 0.073649-1.7967-1.1038-2.978-1.2378-0.194-0.048073-0.37545-0.072544-0.54492-0.073242z" fill="#fff" stroke-linecap="round" stroke-linejoin="round" stroke-width="1.1339" style="paint-order:markers fill stroke" />
 <path id="rect2584-2" d="m14.933 19.011c-0.18994-0.006821-0.39499 0.016837-0.6167 0.071777-0.85184 0.096611-1.1056 0.73596-1.8428 1.0576v1.3315c1.1801-0.31785 1.2132-0.98388 2.0874-1.1763 0.93721 0 0.81228 0.44744 1.7388 1.2129v-1.6391c-0.36001-0.54302-0.79688-0.83794-1.3667-0.8584z" fill="#fff" stroke-linecap="round" stroke-linejoin="round" stroke-width="1.1339" style="paint-order:markers fill stroke" />
 <path id="rect2584-9-0" d="m19.082 19.011c-0.56982 0.020463-1.0067 0.31538-1.3667 0.8584v1.6391c0.92649-0.76545 0.80302-1.2129 1.7402-1.2129 0.87422 0.19239 0.90581 0.85842 2.0859 1.1763v-1.333c-0.73583-0.3219-0.99159-0.95962-1.8428-1.0562-0.22171-0.05494-0.42676-0.078598-0.6167-0.071777z" fill="#fff" stroke-linecap="round" stroke-linejoin="round" stroke-width="1.1339" style="paint-order:markers fill stroke" />
 <path id="rect2584-2-3" d="m14.933 16.011c-0.18994-0.006821-0.39499 0.016837-0.6167 0.071778-1.0393 0.11787-1.1885 1.0435-2.4111 1.2144v1.2114h0.4292c1.3217-0.30077 1.3184-1.013 2.2266-1.2129 0.93721 0 0.81228 0.44744 1.7388 1.2129v-1.6392c-0.36001-0.54302-0.79688-0.83793-1.3667-0.8584z" fill="#fff" stroke-linecap="round" stroke-linejoin="round" stroke-width="1.1339" style="paint-order:markers fill stroke" />
 <path id="rect2584-9-0-7" d="m19.082 16.011c-0.56982 0.020464-1.0067 0.31538-1.3667 0.8584v1.6392c0.92649-0.76545 0.80302-1.2129 1.7402-1.2129 0.90812 0.19986 0.90336 0.91212 2.2251 1.2129h0.4292v-1.2114c-1.2218-0.17117-1.3721-1.0965-2.4111-1.2144-0.22171-0.054941-0.42676-0.078599-0.6167-0.071778z" fill="#fff" stroke-linecap="round" stroke-linejoin="round" stroke-width="1.1339" style="paint-order:markers fill stroke" />
</svg>