<?xml version='1.0' encoding='utf-8'?>
<svg xmlns="http://www.w3.org/2000/svg" id="svg18" width="12mm" height="12mm" version="1.2" viewBox="0 0 34.016 34.016">
 <title>Safety - Safety Zone</title><desc>Adapted from Poster 2025 – National Incident Feature Service (NIFS) Symbology. This is an unofficial adaptation for use in QGIS</desc><path id="path923" transform="matrix(.57735 0 0 .66667 7.1884 2.8346)" d="m17.008 8.5039 7.3313 12.775 7.398 12.737-14.729-0.038502-14.729 0.038501 7.398-12.737z" style="paint-order:markers fill stroke" />
 <path id="path923-6" d="m17.008 11.339-3.5273 7.0986-2.8462 5.6587h12.747l-2.8462-5.6587zm7.0679 14.136v0.03809h0.01904z" fill="#ff0" style="paint-order:markers fill stroke" />
 <g id="text348" stroke-linecap="round" stroke-linejoin="round" stroke-width="1.1339" style="paint-order:markers fill stroke" aria-label="s">
  <path id="path396" d="m19.474 20.966q0 0.84707-0.64223 1.3066-0.63669 0.45952-1.7883 0.45952-1.1184 0-1.7274-0.3654-0.60347-0.37094-0.78617-1.1516l0.88029-0.17163q0.12734 0.48167 0.52596 0.70866 0.39862 0.22146 1.1073 0.22146 0.75849 0 1.1073-0.23253 0.35433-0.23253 0.35433-0.69759 0-0.35433-0.2436-0.57579t-0.78617-0.3654l-0.7142-0.18824q-0.85815-0.22146-1.2236-0.43184-0.35987-0.21592-0.56472-0.52042t-0.20485-0.74742q0-0.81939 0.58132-1.2457 0.58686-0.43184 1.7052-0.43184 0.99102 0 1.5723 0.34879 0.58686 0.3488 0.74188 1.1184l-0.8969 0.11073q-0.08305-0.39862-0.44845-0.60901-0.35987-0.21592-0.96887-0.21592-0.67544 0-0.99656 0.20485-0.32111 0.20485-0.32111 0.62008 0 0.25468 0.13288 0.42077 0.13287 0.16609 0.39309 0.28236t1.0962 0.32111q0.79171 0.19931 1.1405 0.37094 0.3488 0.16609 0.54811 0.37094 0.20485 0.20485 0.31558 0.47613 0.11073 0.26575 0.11073 0.60901z" />
 </g>
</svg>